# xmcd
#
# Track frame offsets:
#	150
#	11171
#	27054
#	40520
#	56470
#	67968
#	86093
#	96299
#	113948
#	122338
#	134900
#	149651
#	165083
#	183837
#	199126
#
# Disc length: 2868 seconds
#
# Revision: 0
# Processed by: cddbd v1.5.2PL0 Copyright (c) Steve Scherf et al.
# Submitted via: dBpowerAMP V4.0
#
DISCID=c80b320f
DTITLE=Molly and Jack Tuttle - The Old Apple Tree
DYEAR=2007
DGENRE=Bluegrass
TTITLE0=I Wish You Knew
TTITLE1=It's Hard to Tell the Singer From the Song
TTITLE2=Graveyard
TTITLE3=Walking the Dog
TTITLE4=June Apple
TTITLE5=Rain and Snow
TTITLE6=The Old Apple Tree
TTITLE7=Stepstone
TTITLE8=Air Mail Special on the Fly
TTITLE9=Muleskinner Blues
TTITLE10=Kentucky Waltz
TTITLE11=Going Down That Road Feeling Bad
TTITLE12=Little Maggie
TTITLE13=Alabama Jubilee
TTITLE14=Diamond Joe
EXTD=Bluegrass
EXTT0=
EXTT1=
EXTT2=
EXTT3=
EXTT4=
EXTT5=
EXTT6=
EXTT7=
EXTT8=
EXTT9=
EXTT10=
EXTT11=
EXTT12=
EXTT13=
EXTT14=
PLAYORDER=
